<?xml version="1.0" encoding="UTF-8"?>
<svg xmlns="http://www.w3.org/2000/svg" xmlns:xlink="http://www.w3.org/1999/xlink" width="174px" height="42px" viewBox="0 0 175 42" version="1.1">
<g id="surface1">
<path style=" stroke:none;fill-rule:nonzero;fill:rgb(0%,0%,0%);fill-opacity:1;" d="M 17.304688 2.527344 C 15.75 2.917969 14.835938 3.167969 14.234375 3.421875 C 13.882812 3.578125 13.457031 3.695312 13.300781 3.695312 C 13.125 3.695312 12.582031 3.832031 12.074219 3.984375 C 11.589844 4.140625 10.617188 4.433594 9.917969 4.648438 C 8.90625 4.9375 8.632812 5.09375 8.59375 5.445312 C 8.554688 5.695312 8.304688 6.085938 8.011719 6.359375 C 7.464844 6.863281 5.753906 7.777344 5.367188 7.777344 C 5.230469 7.777344 4.917969 7.992188 4.6875 8.246094 L 4.238281 8.730469 L 4.316406 16.957031 C 4.394531 24.324219 4.433594 25.296875 4.765625 26.25 C 5.832031 29.4375 6.941406 31.246094 9.234375 33.542969 C 10.617188 34.941406 13.007812 36.945312 13.300781 36.945312 C 13.359375 36.945312 13.765625 37.179688 14.234375 37.46875 C 15.574219 38.34375 15.808594 38.460938 16.722656 38.890625 C 18.21875 39.589844 18.472656 39.589844 20.242188 38.695312 C 21.136719 38.246094 22.050781 37.78125 22.265625 37.664062 C 25.917969 35.484375 29.207031 32.199219 30.683594 29.265625 C 32.375 25.859375 32.472656 25.082031 32.472656 16.003906 L 32.472656 8.398438 L 30.976562 7.679688 C 29.011719 6.746094 28.410156 6.300781 28.097656 5.5625 C 27.804688 4.859375 27.6875 4.820312 22.359375 3.382812 C 21.777344 3.226562 20.902344 2.976562 20.417969 2.820312 C 19.152344 2.449219 18.082031 2.351562 17.304688 2.527344 Z M 19.347656 4.21875 C 19.679688 4.257812 20.320312 4.433594 20.804688 4.570312 C 21.292969 4.707031 22.207031 4.976562 22.847656 5.152344 C 25.878906 5.988281 26.132812 6.105469 27.125 7.097656 C 27.667969 7.640625 28.582031 8.320312 29.167969 8.632812 C 29.75 8.925781 30.351562 9.3125 30.488281 9.488281 C 30.761719 9.859375 30.800781 22.207031 30.527344 23.820312 C 30.101562 26.191406 29.691406 27.609375 29.265625 28.214844 C 29.148438 28.371094 28.855469 28.914062 28.582031 29.4375 C 27.824219 30.9375 24.539062 34.183594 22.285156 35.679688 C 21.214844 36.378906 20.242188 36.945312 20.125 36.945312 C 19.988281 36.945312 19.773438 37.0625 19.660156 37.214844 C 19.289062 37.664062 18.179688 37.78125 17.460938 37.449219 C 13.28125 35.542969 9.101562 31.675781 7.445312 28.195312 C 6.261719 25.667969 6.320312 26.230469 6.320312 17.402344 L 6.320312 9.234375 L 7.484375 8.652344 C 8.128906 8.339844 9.101562 7.640625 9.625 7.097656 C 10.617188 6.105469 10.929688 5.96875 13.804688 5.171875 C 16.101562 4.550781 17.226562 4.238281 17.695312 4.082031 C 17.964844 4.003906 18.316406 3.964844 18.472656 4.023438 C 18.628906 4.0625 19.035156 4.160156 19.347656 4.21875 Z M 19.347656 4.21875 "/>
<path style=" stroke:none;fill-rule:nonzero;fill:rgb(0%,0%,0%);fill-opacity:1;" d="M 17.773438 9.527344 C 17.285156 9.722656 16.722656 10.441406 16.722656 10.851562 C 16.722656 11.003906 16.996094 11.453125 17.304688 11.859375 L 17.890625 12.601562 L 17.890625 19.230469 C 17.890625 24.871094 17.929688 25.859375 18.160156 25.859375 C 18.316406 25.859375 18.492188 25.785156 18.550781 25.6875 C 18.609375 25.609375 18.667969 22.691406 18.667969 19.25 C 18.6875 14.253906 18.746094 12.851562 18.976562 12.425781 C 19.113281 12.132812 19.328125 11.859375 19.445312 11.820312 C 19.5625 11.785156 19.695312 11.453125 19.753906 11.082031 C 19.949219 9.9375 18.839844 9.082031 17.773438 9.527344 Z M 18.628906 10.539062 C 19.015625 10.929688 18.898438 11.277344 18.375 11.277344 C 18.023438 11.277344 17.890625 11.179688 17.890625 10.929688 C 17.890625 10.304688 18.21875 10.128906 18.628906 10.539062 Z M 18.628906 10.539062 "/>
<path style=" stroke:none;fill-rule:nonzero;fill:rgb(0%,0%,0%);fill-opacity:1;" d="M 11.355469 12.445312 C 10.792969 12.660156 10.441406 13.707031 10.714844 14.253906 C 11.023438 14.835938 11.6875 15.359375 12.171875 15.359375 C 12.386719 15.359375 12.8125 15.089844 13.125 14.777344 C 13.515625 14.371094 13.863281 14.195312 14.3125 14.195312 C 15.515625 14.195312 15.554688 14.332031 15.554688 19.171875 C 15.554688 22.828125 15.59375 23.527344 15.828125 23.527344 C 15.984375 23.527344 16.179688 23.429688 16.234375 23.3125 C 16.46875 22.945312 16.527344 15.710938 16.3125 14.71875 C 16.082031 13.6875 15.476562 13.222656 14.371094 13.222656 C 14 13.222656 13.535156 13.027344 13.183594 12.734375 C 12.601562 12.230469 12.074219 12.152344 11.355469 12.445312 Z M 12.523438 13.535156 C 12.679688 13.941406 12.503906 14.195312 12.054688 14.195312 C 11.859375 14.195312 11.648438 14.117188 11.589844 14.019531 C 11.394531 13.707031 11.6875 13.222656 12.054688 13.222656 C 12.25 13.222656 12.464844 13.359375 12.523438 13.535156 Z M 12.523438 13.535156 "/>
<path style=" stroke:none;fill-rule:nonzero;fill:rgb(0%,0%,0%);fill-opacity:1;" d="M 23.644531 12.660156 C 23.351562 12.890625 22.691406 13.164062 22.207031 13.261719 C 21.699219 13.339844 21.078125 13.570312 20.804688 13.785156 L 20.320312 14.136719 L 20.261719 18.839844 C 20.222656 23.253906 20.242188 23.546875 20.554688 23.488281 C 20.863281 23.429688 20.902344 23.0625 20.960938 19.289062 C 21 15.886719 21.058594 15.050781 21.3125 14.660156 C 21.757812 14 22.613281 14.039062 23.46875 14.777344 C 24.246094 15.476562 24.714844 15.515625 25.472656 14.933594 C 25.9375 14.601562 26.054688 14.371094 26.054688 13.804688 C 26.054688 12.523438 24.675781 11.859375 23.644531 12.660156 Z M 24.964844 13.535156 C 25.121094 13.941406 24.945312 14.195312 24.519531 14.195312 C 24.035156 14.195312 23.898438 14 24.128906 13.589844 C 24.363281 13.144531 24.8125 13.105469 24.964844 13.535156 Z M 24.964844 13.535156 "/>
<path style=" stroke:none;fill-rule:nonzero;fill:rgb(0%,0%,0%);fill-opacity:1;" d="M 9.839844 17.8125 C 9.566406 18.0625 9.527344 18.859375 9.527344 23.410156 C 9.527344 27.535156 9.585938 28.777344 9.78125 29.070312 C 10.035156 29.378906 10.382812 29.417969 13.765625 29.417969 C 15.789062 29.417969 17.558594 29.476562 17.695312 29.554688 C 17.832031 29.632812 17.890625 30.082031 17.851562 30.644531 L 17.792969 31.597656 L 16.082031 31.65625 C 14.582031 31.695312 14.371094 31.753906 14.429688 32.042969 C 14.484375 32.335938 14.875 32.375 18.160156 32.433594 C 20.6875 32.472656 21.914062 32.414062 22.089844 32.257812 C 22.554688 31.871094 22.167969 31.695312 20.804688 31.695312 C 18.957031 31.695312 18.859375 31.636719 18.859375 30.507812 C 18.859375 29.886719 18.9375 29.535156 19.113281 29.515625 C 19.230469 29.496094 21 29.476562 23.003906 29.476562 C 26.40625 29.457031 26.695312 29.4375 26.949219 29.089844 C 27.164062 28.777344 27.222656 27.667969 27.222656 23.410156 C 27.222656 17.070312 27.417969 17.5 24.5 17.5 C 22.457031 17.5 21.816406 17.714844 22.4375 18.179688 C 22.691406 18.375 23.214844 18.433594 24.34375 18.375 C 25.839844 18.316406 25.878906 18.335938 26.074219 18.804688 C 26.308594 19.445312 26.269531 27.785156 26.035156 28.234375 C 25.859375 28.5625 25.296875 28.582031 18.277344 28.582031 C 11.003906 28.582031 10.695312 28.5625 10.5 28.214844 C 10.304688 27.824219 10.34375 18.746094 10.558594 18.550781 C 10.617188 18.492188 11.453125 18.414062 12.425781 18.394531 C 14.292969 18.335938 14.503906 18.277344 14.332031 17.792969 C 14.15625 17.363281 10.265625 17.363281 9.839844 17.8125 Z M 9.839844 17.8125 "/>
<path style=" stroke:none;fill-rule:nonzero;fill:rgb(0%,0%,0%);fill-opacity:1;" d="M 46.976562 8.304688 C 46.765625 8.359375 46.433594 8.59375 46.257812 8.828125 C 45.929688 9.195312 45.910156 9.859375 45.910156 17.695312 C 45.910156 25.976562 45.910156 26.171875 46.296875 26.640625 L 46.707031 27.125 L 50.554688 27.125 C 53.9375 27.125 54.445312 27.085938 54.773438 26.773438 C 54.988281 26.601562 55.242188 26.445312 55.339844 26.445312 C 55.667969 26.445312 56.71875 25.316406 57.207031 24.441406 C 57.652344 23.644531 57.652344 23.546875 57.652344 17.5 C 57.652344 10.734375 57.691406 10.945312 56.3125 9.683594 C 55.027344 8.476562 54.445312 8.320312 50.75 8.265625 C 48.882812 8.226562 47.171875 8.246094 46.976562 8.304688 Z M 53.140625 11.957031 C 53.550781 12.347656 53.859375 12.851562 53.859375 13.085938 C 53.878906 13.320312 53.878906 15.613281 53.878906 18.179688 L 53.878906 22.847656 L 53.179688 23.488281 C 52.539062 24.089844 52.402344 24.128906 51.273438 24.070312 L 50.070312 24.015625 L 50.011719 17.890625 C 49.992188 14.523438 50.011719 11.667969 50.070312 11.53125 C 50.128906 11.355469 50.554688 11.277344 51.292969 11.277344 C 52.34375 11.277344 52.5 11.335938 53.140625 11.957031 Z M 53.140625 11.957031 "/>
<path style=" stroke:none;fill-rule:nonzero;fill:rgb(0%,0%,0%);fill-opacity:1;" d="M 88.511719 8.359375 C 88.257812 8.457031 87.890625 8.925781 87.695312 9.371094 C 87.34375 10.148438 87.304688 10.714844 87.304688 17.792969 C 87.304688 24.832031 87.34375 25.433594 87.675781 26.191406 C 87.984375 26.871094 88.179688 27.027344 88.746094 27.144531 C 89.132812 27.203125 89.734375 27.203125 90.085938 27.144531 C 91.214844 26.910156 91.332031 26.523438 91.445312 22.75 C 91.503906 20.28125 91.621094 19.113281 91.855469 18.472656 C 92.4375 16.917969 93.546875 16.429688 94.265625 17.460938 C 94.617188 17.929688 94.65625 18.394531 94.714844 22.128906 L 94.792969 26.289062 L 95.335938 26.753906 C 95.726562 27.085938 96.113281 27.222656 96.695312 27.222656 C 98.503906 27.222656 98.875 26.269531 98.875 21.484375 C 98.875 16.332031 98.390625 15.050781 96.074219 14 C 94.636719 13.339844 93.546875 13.570312 92.285156 14.796875 C 91.972656 15.109375 91.640625 15.304688 91.542969 15.246094 C 91.464844 15.1875 91.390625 13.804688 91.390625 12.171875 C 91.390625 9.292969 91.371094 9.195312 90.921875 8.769531 C 90.398438 8.285156 89.191406 8.070312 88.511719 8.359375 Z M 88.511719 8.359375 "/>
<path style=" stroke:none;fill-rule:nonzero;fill:rgb(0%,0%,0%);fill-opacity:1;" d="M 102.976562 8.304688 C 102.765625 8.359375 102.433594 8.59375 102.257812 8.828125 C 101.929688 9.195312 101.910156 9.859375 101.890625 17.8125 C 101.890625 26.074219 101.910156 26.40625 102.277344 26.734375 C 103.015625 27.398438 105.390625 27.28125 105.390625 26.582031 C 105.390625 26.425781 105.5625 26.152344 105.777344 25.957031 C 106.167969 25.609375 106.1875 25.628906 106.828125 26.367188 L 107.488281 27.125 L 109.042969 27.105469 C 110.484375 27.085938 110.660156 27.046875 111.398438 26.464844 C 112.777344 25.375 112.972656 24.617188 112.972656 20.515625 C 112.972656 16.585938 112.796875 15.789062 111.667969 14.757812 C 111.027344 14.175781 109.609375 13.609375 108.773438 13.609375 C 108.128906 13.609375 106.867188 14.390625 106.554688 14.972656 C 106.128906 15.789062 105.972656 15.320312 105.972656 13.164062 C 105.972656 10.929688 105.640625 9.101562 105.136719 8.613281 C 104.84375 8.304688 103.582031 8.128906 102.976562 8.304688 Z M 108.460938 17.226562 C 108.871094 17.5 108.890625 17.65625 108.890625 20.378906 C 108.890625 23.742188 108.753906 24.109375 107.527344 24.109375 C 106.886719 24.109375 106.730469 24.015625 106.378906 23.449219 C 106.03125 22.886719 105.972656 22.496094 105.972656 20.589844 C 105.972656 18.839844 106.050781 18.257812 106.285156 17.890625 C 106.964844 16.878906 107.664062 16.664062 108.460938 17.226562 Z M 108.460938 17.226562 "/>
<path style=" stroke:none;fill-rule:nonzero;fill:rgb(0%,0%,0%);fill-opacity:1;" d="M 162.59375 8.359375 C 161.71875 8.730469 161.390625 9.9375 161.390625 12.773438 C 161.390625 14.195312 161.3125 15.359375 161.214844 15.359375 C 161.117188 15.359375 160.902344 15.148438 160.726562 14.875 C 160.359375 14.3125 159.074219 13.609375 158.394531 13.609375 C 157.65625 13.609375 156.3125 14.175781 155.710938 14.738281 C 154.503906 15.847656 154.390625 16.351562 154.390625 20.570312 C 154.410156 24.1875 154.429688 24.441406 154.835938 25.160156 C 155.089844 25.589844 155.613281 26.191406 156.023438 26.523438 C 156.703125 27.085938 156.859375 27.125 158.316406 27.125 L 159.871094 27.125 L 160.554688 26.347656 L 161.234375 25.570312 L 161.542969 25.976562 C 161.71875 26.210938 161.972656 26.5625 162.070312 26.734375 C 162.226562 26.988281 162.59375 27.105469 163.371094 27.183594 C 164.382812 27.261719 164.519531 27.222656 164.964844 26.734375 L 165.472656 26.191406 L 165.472656 9.351562 L 165.023438 8.847656 C 164.539062 8.285156 163.351562 8.03125 162.59375 8.359375 Z M 160.457031 17.148438 C 161.253906 17.8125 161.390625 18.296875 161.390625 20.628906 C 161.390625 22.808594 161.371094 22.945312 160.882812 23.507812 C 160.300781 24.1875 159.40625 24.324219 158.820312 23.78125 C 158.511719 23.507812 158.472656 23.121094 158.472656 20.496094 C 158.472656 17.636719 158.492188 17.5 158.898438 17.226562 C 159.425781 16.859375 160.046875 16.839844 160.457031 17.148438 Z M 160.457031 17.148438 "/>
<path style=" stroke:none;fill-rule:nonzero;fill:rgb(0%,0%,0%);fill-opacity:1;" d="M 62.609375 14.15625 C 61.851562 14.523438 61.367188 14.933594 60.957031 15.554688 L 60.375 16.429688 L 60.375 20.535156 C 60.375 24.1875 60.414062 24.695312 60.726562 25.023438 C 60.898438 25.238281 61.054688 25.472656 61.054688 25.570312 C 61.054688 25.648438 61.386719 26.015625 61.773438 26.367188 C 62.554688 27.066406 63.953125 27.378906 65.214844 27.144531 C 65.898438 27.007812 66.890625 26.289062 66.890625 25.917969 C 66.890625 25.375 67.277344 25.53125 67.6875 26.230469 C 68.113281 27.007812 68.503906 27.222656 69.515625 27.222656 C 70.523438 27.222656 70.914062 27.027344 71.246094 26.328125 C 71.515625 25.746094 71.554688 24.890625 71.554688 20.457031 C 71.554688 15.75 71.515625 15.207031 71.207031 14.71875 C 70.136719 13.105469 68.871094 13.222656 67.570312 15.050781 L 67.160156 15.613281 L 66.695312 14.914062 C 65.761719 13.554688 64.378906 13.300781 62.609375 14.15625 Z M 66.324219 17.109375 C 67.082031 17.519531 67.472656 18.707031 67.472656 20.628906 C 67.472656 22.128906 67.394531 22.535156 67.042969 23.121094 C 66.5 23.996094 66.34375 24.109375 65.605469 24.109375 C 64.554688 24.109375 64.457031 23.800781 64.457031 20.476562 C 64.457031 17.714844 64.496094 17.441406 64.828125 17.1875 C 65.273438 16.859375 65.800781 16.839844 66.324219 17.109375 Z M 66.324219 17.109375 "/>
<path style=" stroke:none;fill-rule:nonzero;fill:rgb(0%,0%,0%);fill-opacity:1;" d="M 76.609375 13.980469 C 76.066406 14.214844 75.503906 14.640625 75.113281 15.148438 C 74.550781 15.867188 74.472656 16.121094 74.472656 17.089844 C 74.472656 18.023438 74.570312 18.355469 75.035156 18.976562 C 75.660156 19.871094 76.785156 20.707031 78.03125 21.214844 C 78.320312 21.332031 78.554688 21.503906 78.554688 21.601562 C 78.554688 21.699219 78.671875 21.777344 78.828125 21.777344 C 79.3125 21.777344 80.5 23.042969 80.5 23.566406 C 80.5 24.421875 80.109375 24.734375 79.042969 24.65625 C 78.148438 24.597656 78.070312 24.558594 77.699219 23.800781 C 77.078125 22.574219 76.824219 22.359375 76.046875 22.359375 C 74.917969 22.378906 74.472656 22.90625 74.472656 24.167969 C 74.472656 25.179688 74.53125 25.296875 75.308594 26.09375 C 75.949219 26.714844 76.4375 26.988281 77.214844 27.203125 C 79.0625 27.667969 79.351562 27.667969 80.945312 27.300781 C 82.328125 26.988281 82.601562 26.851562 83.4375 26.035156 L 84.390625 25.101562 L 84.390625 23.566406 C 84.390625 22.050781 84.371094 22.011719 83.609375 21.15625 C 82.929688 20.359375 82.191406 19.871094 80.207031 18.898438 C 78.925781 18.257812 78.554688 17.890625 78.554688 17.226562 C 78.554688 16.761719 78.671875 16.527344 79.023438 16.332031 C 79.761719 15.945312 80.441406 16.234375 81.003906 17.167969 C 81.667969 18.199219 81.785156 18.277344 82.753906 18.277344 C 85.089844 18.277344 84.894531 15.070312 82.523438 14 C 81.296875 13.476562 77.933594 13.457031 76.609375 13.980469 Z M 76.609375 13.980469 "/>
<path style=" stroke:none;fill-rule:nonzero;fill:rgb(0%,0%,0%);fill-opacity:1;" d="M 119 13.902344 C 118.726562 14.058594 118.398438 14.175781 118.261719 14.195312 C 117.832031 14.195312 116.707031 15.148438 116.296875 15.847656 C 115.832031 16.644531 115.675781 17.578125 115.597656 20.125 C 115.460938 24.964844 116.335938 26.464844 119.816406 27.320312 C 121.273438 27.667969 121.332031 27.667969 122.910156 27.300781 C 124.328125 26.96875 124.621094 26.832031 125.398438 26.054688 C 126.777344 24.695312 127.011719 23.800781 126.933594 20.183594 C 126.875 17.324219 126.855469 17.167969 126.292969 16.042969 C 125.746094 14.992188 125.570312 14.816406 124.445312 14.253906 C 123.296875 13.667969 123.023438 13.628906 121.332031 13.628906 C 120.089844 13.628906 119.332031 13.707031 119 13.902344 Z M 122.441406 16.957031 C 122.871094 17.363281 122.890625 17.480469 122.890625 20.609375 C 122.890625 23.78125 122.871094 23.859375 122.421875 24.285156 C 121.703125 24.964844 120.613281 24.792969 120.03125 23.9375 C 119.621094 23.332031 119.582031 23.0625 119.582031 20.667969 C 119.582031 17.945312 119.757812 17.167969 120.496094 16.742188 C 121.082031 16.410156 121.957031 16.507812 122.441406 16.957031 Z M 122.441406 16.957031 "/>
<path style=" stroke:none;fill-rule:nonzero;fill:rgb(0%,0%,0%);fill-opacity:1;" d="M 131.949219 14 C 130.898438 14.484375 130.160156 15.226562 129.695312 16.273438 C 129.34375 17.054688 129.304688 17.578125 129.304688 20.515625 C 129.304688 23.449219 129.34375 23.976562 129.695312 24.753906 C 130.511719 26.582031 131.890625 27.378906 133.933594 27.164062 C 134.769531 27.066406 135.0625 26.929688 135.625 26.367188 C 136.421875 25.53125 136.636719 25.492188 136.8125 26.152344 C 137.082031 27.28125 138.929688 27.628906 139.941406 26.753906 L 140.484375 26.289062 L 140.484375 14.738281 L 139.804688 14.175781 C 139.4375 13.863281 138.929688 13.609375 138.679688 13.609375 C 137.976562 13.609375 136.945312 14.3125 136.8125 14.875 C 136.65625 15.496094 136.207031 15.496094 135.800781 14.855469 C 135.371094 14.214844 134.167969 13.609375 133.351562 13.628906 C 133 13.628906 132.359375 13.804688 131.949219 14 Z M 135.683594 17.402344 C 136.1875 17.832031 136.265625 18.042969 136.382812 19.289062 C 136.539062 21.214844 136.285156 23.121094 135.820312 23.664062 C 135.332031 24.246094 134.4375 24.246094 133.835938 23.683594 C 133.410156 23.292969 133.390625 23.140625 133.390625 20.609375 C 133.390625 18.199219 133.429688 17.890625 133.796875 17.421875 C 134.304688 16.78125 134.945312 16.78125 135.683594 17.402344 Z M 135.683594 17.402344 "/>
<path style=" stroke:none;fill-rule:nonzero;fill:rgb(0%,0%,0%);fill-opacity:1;" d="M 145.035156 13.941406 C 144.121094 14.503906 144.023438 15.109375 143.929688 20.125 C 143.871094 24.324219 143.890625 24.910156 144.21875 25.859375 C 144.550781 26.8125 144.667969 26.949219 145.289062 27.105469 C 146.339844 27.378906 147.253906 27.125 147.640625 26.464844 C 147.914062 25.996094 147.972656 25.375 147.972656 22.945312 C 147.972656 20.457031 148.03125 19.871094 148.339844 19.191406 C 148.789062 18.21875 149.703125 17.695312 150.945312 17.695312 C 152.171875 17.695312 152.640625 17.109375 152.640625 15.59375 C 152.640625 14.5625 152.582031 14.371094 152.132812 14.019531 C 151.839844 13.785156 151.433594 13.609375 151.21875 13.609375 C 150.304688 13.609375 148.671875 15.148438 148.515625 16.140625 C 148.496094 16.390625 148.359375 16.625 148.226562 16.664062 C 147.992188 16.742188 147.894531 16.488281 147.679688 15.304688 C 147.542969 14.445312 146.726562 13.609375 146.027344 13.609375 C 145.753906 13.609375 145.308594 13.765625 145.035156 13.941406 Z M 145.035156 13.941406 "/>
</g>
</svg>
