<?xml version="1.0" standalone="no"?>
<!DOCTYPE svg PUBLIC "-//W3C//DTD SVG 20010904//EN"
 "http://www.w3.org/TR/2001/REC-SVG-20010904/DTD/svg10.dtd">
<svg version="1.0" xmlns="http://www.w3.org/2000/svg"
 width="900.000000pt" height="216.000000pt" viewBox="0 0 900.000000 216.000000"
 preserveAspectRatio="xMidYMid meet">
<metadata>
Created by potrace 1.10, written by Peter Selinger 2001-2011
</metadata>
<g transform="translate(0.000000,216.000000) scale(0.100000,-0.100000)"
fill="#000000" stroke="none">
<path d="M890 2030 c-80 -20 -127 -33 -158 -46 -18 -8 -40 -14 -48 -14 -9 0
-37 -7 -63 -15 -25 -8 -75 -23 -111 -34 -52 -15 -66 -23 -68 -41 -2 -13 -15
-33 -30 -47 -28 -26 -116 -73 -136 -73 -7 0 -23 -11 -35 -24 l-23 -25 4 -423
c4 -379 6 -429 23 -478 55 -164 112 -257 230 -375 71 -72 194 -175 209 -175 3
0 24 -12 48 -27 69 -45 81 -51 128 -73 77 -36 90 -36 181 10 46 23 93 47 104
53 188 112 357 281 433 432 87 175 92 215 92 682 l0 391 -77 37 c-101 48 -132
71 -148 109 -15 36 -21 38 -295 112 -30 8 -75 21 -100 29 -65 19 -120 24 -160
15z m105 -87 c17 -2 50 -11 75 -18 25 -7 72 -21 105 -30 156 -43 169 -49 220
-100 28 -28 75 -63 105 -79 30 -15 61 -35 68 -44 14 -19 16 -654 2 -737 -22
-122 -43 -195 -65 -226 -6 -8 -21 -36 -35 -63 -39 -77 -208 -244 -324 -321
-55 -36 -105 -65 -111 -65 -7 0 -18 -6 -24 -14 -19 -23 -76 -29 -113 -12 -215
98 -430 297 -515 476 -61 130 -58 101 -58 555 l0 420 60 30 c33 16 83 52 110
80 51 51 67 58 215 99 118 32 176 48 200 56 14 4 32 6 40 3 8 -2 29 -7 45 -10z"/>
<path d="M914 1670 c-25 -10 -54 -47 -54 -68 0 -8 14 -31 30 -52 l30 -38 0
-341 c0 -290 2 -341 14 -341 8 0 17 4 20 9 3 4 6 154 6 331 1 257 4 329 16
351 7 15 18 29 24 31 6 2 13 19 16 38 10 59 -47 103 -102 80z m44 -52 c20 -20
14 -38 -13 -38 -18 0 -25 5 -25 18 0 32 17 41 38 20z"/>
<path d="M584 1520 c-29 -11 -47 -65 -33 -93 16 -30 50 -57 75 -57 11 0 33 14
49 30 20 21 38 30 61 30 62 0 64 -7 64 -256 0 -188 2 -224 14 -224 8 0 18 5
21 11 12 19 15 391 4 442 -12 53 -43 77 -100 77 -19 0 -43 10 -61 25 -30 26
-57 30 -94 15z m60 -56 c8 -21 -1 -34 -24 -34 -10 0 -21 4 -24 9 -10 16 5 41
24 41 10 0 21 -7 24 -16z"/>
<path d="M1216 1509 c-15 -12 -49 -26 -74 -31 -26 -4 -58 -16 -72 -27 l-25
-18 -3 -242 c-2 -227 -1 -242 15 -239 16 3 18 22 21 216 2 175 5 218 18 238
23 34 67 32 111 -6 40 -36 64 -38 103 -8 24 17 30 29 30 58 0 66 -71 100 -124
59z m68 -45 c8 -21 -1 -34 -23 -34 -25 0 -32 10 -20 31 12 23 35 25 43 3z"/>
<path d="M506 1244 c-14 -13 -16 -54 -16 -288 0 -212 3 -276 13 -291 13 -16
31 -18 205 -18 104 0 195 -3 202 -7 7 -4 10 -27 8 -56 l-3 -49 -88 -3 c-77 -2
-88 -5 -85 -20 3 -15 23 -17 192 -20 130 -2 193 1 202 9 24 20 4 29 -66 29
-95 0 -100 3 -100 61 0 32 4 50 13 51 6 1 97 2 200 2 175 1 190 2 203 20 11
16 14 73 14 292 0 326 10 304 -140 304 -105 0 -138 -11 -106 -35 13 -10 40
-13 98 -10 77 3 79 2 89 -22 12 -33 10 -462 -2 -485 -9 -17 -38 -18 -399 -18
-374 0 -390 1 -400 19 -10 20 -8 487 3 497 3 3 46 7 96 8 96 3 107 6 98 31 -9
22 -209 22 -231 -1z"/>
<path d="M2416 1733 c-11 -3 -28 -15 -37 -27 -17 -19 -18 -53 -18 -456 0 -426
0 -436 20 -460 l21 -25 198 0 c174 0 200 2 217 18 11 9 24 17 29 17 17 0 71
58 96 103 23 41 23 46 23 357 0 348 2 337 -69 402 -66 62 -96 70 -286 73 -96
2 -184 1 -194 -2z m317 -188 c21 -20 37 -46 37 -58 1 -12 1 -130 1 -262 l0
-240 -36 -33 c-33 -31 -40 -33 -98 -30 l-62 3 -3 315 c-1 173 0 320 3 327 3 9
25 13 63 13 54 0 62 -3 95 -35z"/>
<path d="M4552 1730 c-13 -5 -32 -29 -42 -52 -18 -40 -20 -69 -20 -433 0 -362
2 -393 19 -432 16 -35 26 -43 55 -49 20 -3 51 -3 69 0 58 12 64 32 70 226 3
127 9 187 21 220 30 80 87 105 124 52 18 -24 20 -48 23 -240 l4 -214 28 -24
c20 -17 40 -24 70 -24 93 0 112 49 112 295 0 265 -25 331 -144 385 -74 34
-130 22 -195 -41 -16 -16 -33 -26 -38 -23 -4 3 -8 74 -8 158 0 148 -1 153 -24
175 -27 25 -89 36 -124 21z"/>
<path d="M5296 1733 c-11 -3 -28 -15 -37 -27 -17 -19 -18 -53 -19 -462 0 -425
1 -442 20 -459 38 -34 160 -28 160 8 0 8 9 22 20 32 20 18 21 17 54 -21 l34
-39 80 1 c74 1 83 3 121 33 71 56 81 95 81 306 0 202 -9 243 -67 296 -33 30
-106 59 -149 59 -33 0 -98 -40 -114 -70 -22 -42 -30 -18 -30 93 0 115 -17 209
-43 234 -15 16 -80 25 -111 16z m282 -459 c21 -14 22 -22 22 -162 0 -173 -7
-192 -70 -192 -33 0 -41 5 -59 34 -18 29 -21 49 -21 147 0 90 4 120 16 139 35
52 71 63 112 34z"/>
<path d="M8362 1730 c-45 -19 -62 -81 -62 -227 0 -73 -4 -133 -9 -133 -5 0
-16 11 -25 25 -19 29 -85 65 -120 65 -38 0 -107 -29 -138 -58 -62 -57 -68 -83
-68 -300 1 -186 2 -199 23 -236 13 -22 40 -53 61 -70 35 -29 43 -31 118 -31
l80 0 35 40 35 40 16 -21 c9 -12 22 -30 27 -39 8 -13 27 -19 67 -23 52 -4 59
-2 82 23 l26 28 0 433 0 433 -23 26 c-25 29 -86 42 -125 25z m-110 -452 c41
-34 48 -59 48 -179 0 -112 -1 -119 -26 -148 -30 -35 -76 -42 -106 -14 -16 14
-18 34 -18 169 0 147 1 154 22 168 27 19 59 20 80 4z"/>
<path d="M3220 1432 c-39 -19 -64 -40 -85 -72 l-30 -45 0 -211 c0 -188 2 -214
18 -231 9 -11 17 -23 17 -28 0 -4 17 -23 37 -41 40 -36 112 -52 177 -40 35 7
86 44 86 63 0 28 20 20 41 -16 22 -40 42 -51 94 -51 52 0 72 10 89 46 14 30
16 74 16 302 0 242 -2 270 -18 295 -55 83 -120 77 -187 -17 l-21 -29 -24 36
c-48 70 -119 83 -210 39z m191 -152 c39 -21 59 -82 59 -181 0 -77 -4 -98 -22
-128 -28 -45 -36 -51 -74 -51 -54 0 -59 16 -59 187 0 142 2 156 19 169 23 17
50 18 77 4z"/>
<path d="M3940 1441 c-28 -12 -57 -34 -77 -60 -29 -37 -33 -50 -33 -100 0 -48
5 -65 29 -97 32 -46 90 -89 154 -115 15 -6 27 -15 27 -20 0 -5 6 -9 14 -9 25
0 86 -65 86 -92 0 -44 -20 -60 -75 -56 -46 3 -50 5 -69 44 -32 63 -45 74 -85
74 -58 -1 -81 -28 -81 -93 0 -52 3 -58 43 -99 33 -32 58 -46 98 -57 95 -24
110 -24 192 -5 71 16 85 23 128 65 l49 48 0 79 c0 78 -1 80 -40 124 -35 41
-73 66 -175 116 -66 33 -85 52 -85 86 0 24 6 36 24 46 38 20 73 5 102 -43 34
-53 40 -57 90 -57 120 0 110 165 -12 220 -63 27 -236 28 -304 1z"/>
<path d="M6120 1445 c-14 -8 -31 -14 -38 -15 -22 0 -80 -49 -101 -85 -24 -41
-32 -89 -36 -220 -7 -249 38 -326 217 -370 75 -18 78 -18 159 1 73 17 88 24
128 64 71 70 83 116 79 302 -3 147 -4 155 -33 213 -28 54 -37 63 -95 92 -59
30 -73 32 -160 32 -64 0 -103 -4 -120 -14z m177 -157 c22 -21 23 -27 23 -188
0 -163 -1 -167 -24 -189 -37 -35 -93 -26 -123 18 -21 31 -23 45 -23 168 0 140
9 180 47 202 30 17 75 12 100 -11z"/>
<path d="M6786 1440 c-54 -25 -92 -63 -116 -117 -18 -40 -20 -67 -20 -218 0
-151 2 -178 20 -218 42 -94 113 -135 218 -124 43 5 58 12 87 41 41 43 52 45
61 11 14 -58 109 -76 161 -31 l28 24 0 297 0 297 -35 29 c-19 16 -45 29 -58
29 -36 0 -89 -36 -96 -65 -8 -32 -31 -32 -52 1 -22 33 -84 64 -126 63 -18 0
-51 -9 -72 -19z m192 -175 c26 -22 30 -33 36 -97 8 -99 -5 -197 -29 -225 -25
-30 -71 -30 -102 -1 -22 20 -23 28 -23 158 0 124 2 140 21 164 26 33 59 33 97
1z"/>
<path d="M7459 1443 c-47 -29 -52 -60 -57 -318 -3 -216 -2 -246 15 -295 17
-49 23 -56 55 -64 54 -14 101 -1 121 33 14 24 17 56 17 181 0 128 3 158 19
193 23 50 70 77 134 77 63 0 87 30 87 108 0 53 -3 63 -26 81 -15 12 -36 21
-47 21 -47 0 -131 -79 -139 -130 -1 -13 -8 -25 -15 -27 -12 -4 -17 9 -28 70
-7 44 -49 87 -85 87 -14 0 -37 -8 -51 -17z"/>
</g>
</svg>
