<?xml version="1.0" encoding="UTF-8"?>
<svg xmlns="http://www.w3.org/2000/svg" xmlns:xlink="http://www.w3.org/1999/xlink" width="16px" height="16px" viewBox="0 0 16 16" version="1.1">
<g id="surface1">
<path style=" stroke:none;fill-rule:nonzero;fill:rgb(0%,0%,0%);fill-opacity:1;" d="M 1.417969 0.628906 C 0.789062 0.917969 0.472656 1.644531 0.691406 2.304688 C 0.90625 2.976562 1.714844 3.390625 2.363281 3.164062 C 2.640625 3.074219 2.957031 3.191406 6.175781 4.582031 C 8.109375 5.417969 9.785156 6.109375 9.910156 6.109375 C 10.175781 6.109375 10.226562 6.03125 10.984375 4.265625 C 11.300781 3.535156 11.507812 2.9375 11.46875 2.835938 C 11.390625 2.589844 10.671875 2.238281 10.394531 2.304688 C 10.238281 2.34375 10.070312 2.601562 9.753906 3.300781 C 9.515625 3.8125 9.289062 4.238281 9.25 4.238281 C 9.203125 4.238281 8.136719 3.785156 6.875 3.242188 C 5.617188 2.691406 4.316406 2.128906 3.980469 2 C 3.476562 1.792969 3.359375 1.695312 3.191406 1.351562 C 3.09375 1.125 2.886719 0.867188 2.75 0.757812 C 2.414062 0.523438 1.804688 0.453125 1.417969 0.628906 Z M 2.542969 1.4375 C 2.835938 1.773438 2.816406 2.03125 2.472656 2.375 C 2.128906 2.710938 1.890625 2.730469 1.546875 2.464844 C 1.222656 2.207031 1.132812 1.824219 1.328125 1.507812 C 1.644531 1.035156 2.136719 1.003906 2.542969 1.4375 Z M 2.542969 1.4375 "/>
<path style=" stroke:none;fill-rule:nonzero;fill:rgb(0%,0%,0%);fill-opacity:1;" d="M 13.230469 0.886719 C 12.691406 1.210938 12.433594 2.050781 12.710938 2.570312 C 12.796875 2.730469 12.542969 3.410156 11.28125 6.34375 C 10.441406 8.316406 9.753906 9.980469 9.753906 10.03125 C 9.753906 10.246094 10.089844 10.441406 11.476562 11.023438 C 12.421875 11.429688 12.984375 11.617188 13.113281 11.578125 C 13.230469 11.535156 13.398438 11.308594 13.507812 11.0625 C 13.761719 10.453125 13.664062 10.316406 12.5625 9.84375 C 12.039062 9.617188 11.683594 9.410156 11.703125 9.339844 C 11.804688 8.886719 14.238281 3.351562 14.335938 3.351562 C 14.394531 3.351562 14.621094 3.203125 14.816406 3.023438 C 15.457031 2.472656 15.46875 1.585938 14.835938 1.003906 C 14.542969 0.738281 14.414062 0.691406 14.019531 0.691406 C 13.722656 0.691406 13.429688 0.757812 13.230469 0.886719 Z M 14.453125 1.496094 C 14.90625 1.929688 14.589844 2.757812 13.96875 2.757812 C 13.617188 2.757812 13.203125 2.363281 13.203125 2.019531 C 13.203125 1.683594 13.617188 1.28125 13.949219 1.28125 C 14.097656 1.28125 14.324219 1.378906 14.453125 1.496094 Z M 14.453125 1.496094 "/>
<path style=" stroke:none;fill-rule:nonzero;fill:rgb(0%,0%,0%);fill-opacity:1;" d="M 6.148438 0.875 C 5.988281 0.984375 5.585938 1.949219 5.636719 2.089844 C 5.695312 2.226562 8.71875 3.558594 8.976562 3.546875 C 9.152344 3.546875 9.664062 2.503906 9.585938 2.296875 C 9.558594 2.238281 9.378906 2.117188 9.183594 2.03125 C 8.984375 1.949219 8.238281 1.644531 7.527344 1.351562 C 6.816406 1.054688 6.195312 0.835938 6.148438 0.875 Z M 6.148438 0.875 "/>
<path style=" stroke:none;fill-rule:nonzero;fill:rgb(0%,0%,0%);fill-opacity:1;" d="M 2.601562 4.53125 C 2.324219 4.640625 2.019531 5.4375 2.15625 5.695312 C 2.207031 5.792969 2.671875 6.039062 3.191406 6.257812 C 3.714844 6.464844 4.136719 6.640625 4.136719 6.648438 C 4.136719 6.660156 3.578125 8.019531 2.875 9.683594 C 1.742188 12.414062 1.597656 12.71875 1.28125 12.925781 C 0.167969 13.664062 0.53125 15.269531 1.84375 15.429688 C 2.835938 15.558594 3.664062 14.394531 3.210938 13.515625 C 3.054688 13.210938 3.0625 13.203125 4.441406 9.882812 C 5.210938 8.050781 5.871094 6.433594 5.910156 6.285156 C 6.039062 5.871094 5.804688 5.683594 4.433594 5.113281 C 2.769531 4.421875 2.835938 4.453125 2.601562 4.53125 Z M 2.472656 13.585938 C 2.628906 13.742188 2.757812 13.96875 2.757812 14.089844 C 2.757812 14.355469 2.246094 14.875 1.980469 14.875 C 1.644531 14.875 1.25 14.453125 1.25 14.089844 C 1.25 13.851562 1.320312 13.695312 1.515625 13.527344 C 1.871094 13.222656 2.117188 13.242188 2.472656 13.585938 Z M 2.472656 13.585938 "/>
<path style=" stroke:none;fill-rule:nonzero;fill:rgb(0%,0%,0%);fill-opacity:1;" d="M 13.722656 5.832031 C 13.597656 6.050781 12.316406 9.042969 12.316406 9.144531 C 12.316406 9.191406 12.582031 9.359375 12.917969 9.507812 C 13.417969 9.734375 13.535156 9.753906 13.644531 9.644531 C 13.785156 9.496094 15.074219 6.484375 15.074219 6.304688 C 15.074219 6.207031 14.097656 5.714844 13.890625 5.714844 C 13.84375 5.714844 13.773438 5.773438 13.722656 5.832031 Z M 13.722656 5.832031 "/>
<path style=" stroke:none;fill-rule:nonzero;fill:rgb(0%,0%,0%);fill-opacity:1;" d="M 1.910156 6.769531 C 1.359375 8.097656 0.691406 9.753906 0.691406 9.832031 C 0.691406 9.882812 0.964844 10.039062 1.300781 10.175781 C 1.792969 10.394531 1.929688 10.421875 2.03125 10.324219 C 2.136719 10.207031 3.449219 7.101562 3.449219 6.957031 C 3.449219 6.855469 2.453125 6.402344 2.246094 6.402344 C 2.136719 6.402344 2.011719 6.550781 1.910156 6.769531 Z M 1.910156 6.769531 "/>
<path style=" stroke:none;fill-rule:nonzero;fill:rgb(0%,0%,0%);fill-opacity:1;" d="M 5.597656 10.117188 C 5.351562 10.402344 4.316406 12.976562 4.355469 13.222656 C 4.382812 13.457031 4.90625 13.785156 5.28125 13.792969 C 5.566406 13.792969 5.734375 13.566406 6.117188 12.628906 C 6.402344 11.941406 6.484375 11.824219 6.648438 11.863281 C 7.09375 11.960938 12.472656 14.285156 12.523438 14.402344 C 12.5625 14.472656 12.648438 14.660156 12.71875 14.816406 C 12.9375 15.269531 13.359375 15.488281 13.96875 15.4375 C 15.230469 15.351562 15.675781 13.949219 14.710938 13.09375 C 14.363281 12.796875 14.316406 12.789062 13.714844 12.835938 C 13.003906 12.886719 13.28125 12.996094 8.316406 10.875 C 7.113281 10.363281 6.039062 9.949219 5.941406 9.949219 C 5.832031 9.949219 5.675781 10.03125 5.597656 10.117188 Z M 14.421875 13.585938 C 14.699219 13.882812 14.660156 14.375 14.34375 14.648438 C 14 14.945312 13.695312 14.9375 13.359375 14.628906 C 13.054688 14.34375 13.035156 14.011719 13.308594 13.65625 C 13.566406 13.328125 14.15625 13.289062 14.421875 13.585938 Z M 14.421875 13.585938 "/>
<path style=" stroke:none;fill-rule:nonzero;fill:rgb(0%,0%,0%);fill-opacity:1;" d="M 6.730469 12.503906 C 6.679688 12.53125 6.53125 12.816406 6.402344 13.144531 C 6.1875 13.683594 6.1875 13.734375 6.34375 13.84375 C 6.582031 14.019531 9.410156 15.171875 9.597656 15.171875 C 9.761719 15.171875 10.285156 14.128906 10.214844 13.949219 C 10.1875 13.890625 9.785156 13.683594 9.300781 13.476562 C 8.816406 13.28125 8.070312 12.964844 7.625 12.777344 C 7.183594 12.589844 6.789062 12.464844 6.730469 12.503906 Z M 6.730469 12.503906 "/>
</g>
</svg>
