<?xml version="1.0" encoding="UTF-8"?>
<svg xmlns="http://www.w3.org/2000/svg" xmlns:xlink="http://www.w3.org/1999/xlink" width="192px" height="192px" viewBox="0 0 192 192" version="1.1">
<g id="surface1">
<path style=" stroke:none;fill-rule:nonzero;fill:rgb(0%,0%,0%);fill-opacity:1;" d="M 17.023438 7.566406 C 9.457031 10.996094 5.675781 19.742188 8.277344 27.664062 C 10.875 35.703125 20.570312 40.671875 28.375 37.949219 C 31.683594 36.886719 35.46875 38.304688 74.128906 54.976562 C 97.300781 65.023438 117.398438 73.300781 118.9375 73.300781 C 122.128906 73.300781 122.71875 72.355469 131.824219 51.191406 C 135.605469 42.441406 138.089844 35.230469 137.617188 34.050781 C 136.671875 31.09375 128.039062 26.835938 124.730469 27.664062 C 122.835938 28.136719 120.828125 31.210938 117.042969 39.605469 C 114.207031 45.753906 111.488281 50.835938 111.015625 50.835938 C 110.421875 50.835938 97.65625 45.398438 82.523438 38.898438 C 67.390625 32.277344 51.785156 25.535156 47.761719 24 C 41.734375 21.515625 40.316406 20.335938 38.304688 16.195312 C 37.125 13.476562 34.640625 10.402344 32.984375 9.101562 C 28.964844 6.265625 21.636719 5.4375 17.023438 7.566406 Z M 30.503906 17.261719 C 34.050781 21.28125 33.8125 24.355469 29.675781 28.492188 C 25.535156 32.511719 22.699219 32.75 18.5625 29.558594 C 14.660156 26.484375 13.597656 21.871094 15.960938 18.089844 C 19.742188 12.414062 25.65625 12.058594 30.503906 17.261719 Z M 30.503906 17.261719 "/>
<path style=" stroke:none;fill-rule:nonzero;fill:rgb(0%,0%,0%);fill-opacity:1;" d="M 158.777344 10.640625 C 152.277344 14.542969 149.203125 24.589844 152.511719 30.855469 C 153.578125 32.75 150.503906 40.90625 135.371094 76.136719 C 125.320312 99.785156 117.042969 119.761719 117.042969 120.355469 C 117.042969 122.957031 121.0625 125.320312 137.734375 132.296875 C 149.082031 137.144531 155.824219 139.390625 157.359375 138.917969 C 158.777344 138.441406 160.789062 135.722656 162.089844 132.769531 C 165.164062 125.4375 163.980469 123.785156 150.738281 118.109375 C 144.472656 115.390625 140.214844 112.90625 140.453125 112.078125 C 141.636719 106.640625 170.835938 40.195312 172.019531 40.195312 C 172.730469 40.195312 175.449219 38.421875 177.8125 36.296875 C 185.496094 29.675781 185.617188 19.035156 178.050781 12.058594 C 174.503906 8.867188 172.964844 8.277344 168.238281 8.277344 C 164.691406 8.277344 161.144531 9.101562 158.777344 10.640625 Z M 173.4375 17.96875 C 178.875 23.171875 175.09375 33.101562 167.644531 33.101562 C 163.390625 33.101562 158.421875 28.375 158.421875 24.238281 C 158.421875 20.214844 163.390625 15.371094 167.410156 15.371094 C 169.183594 15.371094 171.902344 16.550781 173.4375 17.96875 Z M 173.4375 17.96875 "/>
<path style=" stroke:none;fill-rule:nonzero;fill:rgb(0%,0%,0%);fill-opacity:1;" d="M 73.773438 10.523438 C 71.882812 11.824219 67.035156 23.410156 67.625 25.0625 C 68.335938 26.71875 104.628906 42.679688 107.703125 42.5625 C 109.832031 42.5625 115.980469 30.03125 115.035156 27.546875 C 114.679688 26.835938 112.550781 25.417969 110.1875 24.355469 C 107.824219 23.410156 98.835938 19.742188 90.324219 16.195312 C 81.8125 12.648438 74.363281 10.050781 73.773438 10.523438 Z M 73.773438 10.523438 "/>
<path style=" stroke:none;fill-rule:nonzero;fill:rgb(0%,0%,0%);fill-opacity:1;" d="M 31.210938 54.382812 C 27.902344 55.683594 24.238281 65.261719 25.890625 68.335938 C 26.484375 69.515625 32.039062 72.472656 38.304688 75.074219 C 44.570312 77.558594 49.65625 79.683594 49.65625 79.804688 C 49.65625 79.921875 42.917969 96.238281 34.523438 116.214844 C 20.925781 148.964844 19.152344 152.628906 15.371094 155.113281 C 2.011719 163.980469 6.382812 183.25 22.109375 185.144531 C 34.050781 186.679688 43.980469 172.730469 38.542969 162.207031 C 36.648438 158.542969 36.769531 158.421875 53.320312 118.582031 C 62.542969 96.589844 70.464844 77.203125 70.9375 75.429688 C 72.472656 70.464844 69.636719 68.214844 53.203125 61.359375 C 33.222656 53.082031 34.050781 53.4375 31.210938 54.382812 Z M 29.675781 163.035156 C 31.566406 164.925781 33.101562 167.644531 33.101562 169.0625 C 33.101562 172.257812 26.957031 178.523438 23.761719 178.523438 C 19.742188 178.523438 15.015625 173.4375 15.015625 169.0625 C 15.015625 166.226562 15.84375 164.335938 18.207031 162.324219 C 22.464844 158.660156 25.417969 158.898438 29.675781 163.035156 Z M 29.675781 163.035156 "/>
<path style=" stroke:none;fill-rule:nonzero;fill:rgb(0%,0%,0%);fill-opacity:1;" d="M 164.691406 69.988281 C 163.152344 72.589844 147.785156 108.53125 147.785156 109.714844 C 147.785156 110.304688 150.976562 112.316406 154.996094 114.089844 C 161.023438 116.808594 162.441406 117.042969 163.742188 115.742188 C 165.398438 113.96875 180.886719 77.792969 180.886719 75.664062 C 180.886719 74.484375 169.183594 68.570312 166.699219 68.570312 C 166.109375 68.570312 165.28125 69.28125 164.691406 69.988281 Z M 164.691406 69.988281 "/>
<path style=" stroke:none;fill-rule:nonzero;fill:rgb(0%,0%,0%);fill-opacity:1;" d="M 22.9375 81.222656 C 16.316406 97.183594 8.277344 117.042969 8.277344 117.988281 C 8.277344 118.582031 11.585938 120.472656 15.605469 122.128906 C 21.515625 124.730469 23.171875 125.082031 24.355469 123.902344 C 25.65625 122.484375 41.378906 85.242188 41.378906 83.46875 C 41.378906 82.285156 29.4375 76.847656 26.957031 76.847656 C 25.65625 76.847656 24.117188 78.621094 22.9375 81.222656 Z M 22.9375 81.222656 "/>
<path style=" stroke:none;fill-rule:nonzero;fill:rgb(0%,0%,0%);fill-opacity:1;" d="M 67.152344 121.417969 C 64.195312 124.847656 51.785156 155.703125 52.257812 158.660156 C 52.609375 161.496094 58.875 165.398438 63.371094 165.515625 C 66.796875 165.515625 68.808594 162.796875 73.417969 151.566406 C 76.847656 143.289062 77.792969 141.871094 79.804688 142.34375 C 85.125 143.527344 149.675781 171.429688 150.265625 172.847656 C 150.738281 173.675781 151.804688 175.921875 152.628906 177.8125 C 155.230469 183.25 160.316406 185.851562 167.644531 185.261719 C 182.777344 184.195312 188.097656 167.410156 176.511719 157.125 C 172.375 153.578125 171.785156 153.457031 164.570312 154.050781 C 156.058594 154.640625 159.371094 155.941406 99.785156 130.523438 C 85.359375 124.375 72.472656 119.410156 71.289062 119.410156 C 69.988281 119.410156 68.097656 120.355469 67.152344 121.417969 Z M 173.082031 163.035156 C 176.394531 166.582031 175.921875 172.492188 172.136719 175.804688 C 168 179.351562 164.335938 179.230469 160.316406 175.566406 C 156.648438 172.136719 156.414062 168.117188 159.722656 163.863281 C 162.796875 159.960938 169.890625 159.488281 173.082031 163.035156 Z M 173.082031 163.035156 "/>
<path style=" stroke:none;fill-rule:nonzero;fill:rgb(0%,0%,0%);fill-opacity:1;" d="M 80.75 150.03125 C 80.15625 150.382812 78.382812 153.8125 76.847656 157.714844 C 74.246094 164.214844 74.246094 164.808594 76.136719 166.109375 C 78.976562 168.238281 112.90625 182.070312 115.152344 182.070312 C 117.164062 182.070312 123.429688 169.535156 122.601562 167.410156 C 122.246094 166.699219 117.398438 164.214844 111.605469 161.734375 C 105.8125 159.371094 96.828125 155.585938 91.507812 153.339844 C 86.1875 151.09375 81.457031 149.558594 80.75 150.03125 Z M 80.75 150.03125 "/>
</g>
</svg>
