<?xml version="1.0" standalone="no"?>
<!DOCTYPE svg PUBLIC "-//W3C//DTD SVG 20010904//EN"
 "http://www.w3.org/TR/2001/REC-SVG-20010904/DTD/svg10.dtd">
<svg version="1.0" xmlns="http://www.w3.org/2000/svg"
 width="162.000000pt" height="162.000000pt" viewBox="0 0 162.000000 162.000000"
 preserveAspectRatio="xMidYMid meet">

<g transform="translate(0.000000,162.000000) scale(0.100000,-0.100000)"
fill="#000000" stroke="none">
<path d="M144 1556 c-64 -29 -96 -103 -74 -170 22 -68 104 -110 170 -87 28 9
60 -3 387 -144 196 -85 366 -155 379 -155 27 0 32 8 109 187 32 74 53 135 49
145 -8 25 -81 61 -109 54 -16 -4 -33 -30 -65 -101 -24 -52 -47 -95 -51 -95 -5
0 -113 46 -241 101 -128 56 -260 113 -294 126 -51 21 -63 31 -80 66 -10 23
-31 49 -45 60 -34 24 -96 31 -135 13z m114 -82 c30 -34 28 -60 -7 -95 -35 -34
-59 -36 -94 -9 -33 26 -42 65 -22 97 32 48 82 51 123 7z"/>
<path d="M1343 1530 c-55 -33 -81 -118 -53 -171 9 -16 -17 -85 -145 -383 -85
-200 -155 -369 -155 -374 0 -22 34 -42 175 -101 96 -41 153 -60 166 -56 12 4
29 27 40 52 26 62 16 76 -96 124 -53 23 -89 44 -87 51 10 46 257 608 267 608
6 0 29 15 49 33 65 56 66 146 2 205 -30 27 -43 32 -83 32 -30 0 -60 -7 -80
-20z m124 -62 c46 -44 14 -128 -49 -128 -36 0 -78 40 -78 75 0 34 42 75 76 75
15 0 38 -10 51 -22z"/>
<path d="M624 1531 c-16 -11 -57 -109 -52 -123 6 -14 313 -149 339 -148 18 0
70 106 62 127 -3 6 -21 18 -41 27 -20 8 -96 39 -168 69 -72 30 -135 52 -140
48z"/>
<path d="M264 1160 c-28 -11 -59 -92 -45 -118 5 -10 52 -35 105 -57 53 -21 96
-39 96 -40 0 -1 -57 -139 -128 -308 -115 -277 -130 -308 -162 -329 -113 -75
-76 -238 57 -254 101 -13 185 105 139 194 -16 31 -15 32 125 369 78 186 145
350 149 365 13 42 -11 61 -150 119 -169 70 -162 67 -186 59z m-13 -919 c16
-16 29 -39 29 -51 0 -27 -52 -80 -79 -80 -34 0 -74 43 -74 80 0 24 7 40 27 57
36 31 61 29 97 -6z"/>
<path d="M1393 1028 c-13 -22 -143 -326 -143 -336 0 -5 27 -22 61 -37 51 -23
63 -25 74 -14 14 15 145 321 145 339 0 10 -99 60 -120 60 -5 0 -12 -6 -17 -12z"/>
<path d="M194 933 c-56 -135 -124 -303 -124 -311 0 -5 28 -21 62 -35 50 -22
64 -25 74 -15 11 12 144 327 144 342 0 10 -101 56 -122 56 -11 0 -24 -15 -34
-37z"/>
<path d="M568 593 c-25 -29 -130 -290 -126 -315 3 -24 56 -57 94 -58 29 0 46
23 85 118 29 70 37 82 54 78 45 -10 591 -246 596 -258 4 -7 13 -26 20 -42 22
-46 65 -68 127 -63 128 9 173 151 75 238 -35 30 -40 31 -101 26 -72 -5 -44
-16 -548 199 -122 52 -231 94 -241 94 -11 0 -27 -8 -35 -17z m896 -352 c28
-30 24 -80 -8 -108 -35 -30 -66 -29 -100 2 -31 29 -33 63 -5 99 26 33 86 37
113 7z"/>
<path d="M683 351 c-5 -3 -20 -32 -33 -65 -22 -55 -22 -60 -6 -71 24 -18 311
-135 330 -135 17 0 70 106 63 124 -3 6 -44 27 -93 48 -49 20 -125 52 -170 71
-45 19 -85 32 -91 28z"/>
</g>
</svg>
