<?xml version="1.0" encoding="UTF-8"?>
<svg xmlns="http://www.w3.org/2000/svg" xmlns:xlink="http://www.w3.org/1999/xlink" width="512px" height="512px" viewBox="0 0 512 512" version="1.1">
<g id="surface1">
<path style=" stroke:none;fill-rule:nonzero;fill:rgb(0%,0%,0%);fill-opacity:1;" d="M 45.398438 20.175781 C 25.222656 29.320312 15.132812 52.648438 22.070312 73.773438 C 29.003906 95.210938 54.855469 108.453125 75.664062 101.203125 C 84.492188 98.363281 94.582031 102.148438 197.675781 146.601562 C 259.46875 173.398438 313.0625 195.46875 317.164062 195.46875 C 325.675781 195.46875 327.25 192.945312 351.527344 136.511719 C 361.617188 113.183594 368.238281 93.949219 366.976562 90.796875 C 364.453125 82.917969 341.4375 71.566406 332.609375 73.773438 C 327.566406 75.035156 322.207031 83.230469 312.117188 105.617188 C 304.550781 122.011719 297.300781 135.566406 296.039062 135.566406 C 294.464844 135.566406 260.414062 121.0625 220.058594 103.722656 C 179.703125 86.070312 138.089844 68.097656 127.371094 64 C 111.289062 57.378906 107.507812 54.226562 102.148438 43.191406 C 98.996094 35.941406 92.375 27.742188 87.960938 24.277344 C 77.242188 16.710938 57.695312 14.503906 45.398438 20.175781 Z M 81.339844 46.03125 C 90.796875 56.75 90.167969 64.945312 79.132812 75.980469 C 68.097656 86.699219 60.53125 87.328125 49.496094 78.816406 C 39.09375 70.621094 36.257812 58.324219 42.5625 48.238281 C 52.648438 33.101562 68.414062 32.15625 81.339844 46.03125 Z M 81.339844 46.03125 "/>
<path style=" stroke:none;fill-rule:nonzero;fill:rgb(0%,0%,0%);fill-opacity:1;" d="M 423.410156 28.375 C 406.070312 38.777344 397.871094 65.578125 406.699219 82.285156 C 409.535156 87.328125 401.339844 109.082031 360.984375 203.035156 C 334.1875 266.089844 312.117188 319.371094 312.117188 320.945312 C 312.117188 327.882812 322.835938 334.1875 367.289062 352.789062 C 397.558594 365.714844 415.527344 371.703125 419.625 370.441406 C 423.410156 369.183594 428.769531 361.929688 432.238281 354.050781 C 440.433594 334.503906 437.28125 330.089844 401.96875 314.957031 C 385.261719 307.703125 373.910156 301.082031 374.542969 298.875 C 377.695312 284.375 455.566406 107.191406 458.71875 107.191406 C 460.609375 107.191406 467.863281 102.464844 474.167969 96.789062 C 494.660156 79.132812 494.976562 50.757812 474.796875 32.15625 C 465.339844 23.644531 461.242188 22.070312 448.628906 22.070312 C 439.171875 22.070312 429.714844 24.277344 423.410156 28.375 Z M 462.503906 47.921875 C 477.003906 61.792969 466.917969 88.277344 447.054688 88.277344 C 435.703125 88.277344 422.464844 75.664062 422.464844 64.628906 C 422.464844 53.910156 435.703125 40.984375 446.421875 40.984375 C 451.152344 40.984375 458.402344 44.136719 462.503906 47.921875 Z M 462.503906 47.921875 "/>
<path style=" stroke:none;fill-rule:nonzero;fill:rgb(0%,0%,0%);fill-opacity:1;" d="M 196.730469 28.058594 C 191.683594 31.527344 178.757812 62.421875 180.335938 66.835938 C 182.226562 71.25 279.015625 113.8125 287.210938 113.496094 C 292.886719 113.496094 309.28125 80.078125 306.757812 73.457031 C 305.8125 71.566406 300.136719 67.785156 293.832031 64.945312 C 287.527344 62.421875 263.566406 52.648438 240.867188 43.191406 C 218.167969 33.734375 198.304688 26.796875 196.730469 28.058594 Z M 196.730469 28.058594 "/>
<path style=" stroke:none;fill-rule:nonzero;fill:rgb(0%,0%,0%);fill-opacity:1;" d="M 83.230469 145.023438 C 74.402344 148.492188 64.628906 174.03125 69.042969 182.226562 C 70.621094 185.378906 85.4375 193.261719 102.148438 200.195312 C 118.855469 206.816406 132.414062 212.492188 132.414062 212.808594 C 132.414062 213.125 114.441406 256.628906 92.058594 309.910156 C 55.804688 397.242188 51.074219 407.015625 40.984375 413.636719 C 5.359375 437.28125 17.023438 488.671875 58.957031 493.714844 C 90.796875 497.8125 117.28125 460.609375 102.777344 432.550781 C 97.734375 422.777344 98.050781 422.464844 142.1875 316.214844 C 166.777344 257.578125 187.902344 205.871094 189.164062 201.144531 C 193.261719 187.902344 185.695312 181.910156 141.871094 163.625 C 88.589844 141.558594 90.796875 142.503906 83.230469 145.023438 Z M 79.132812 434.757812 C 84.175781 439.804688 88.277344 447.054688 88.277344 450.835938 C 88.277344 459.351562 71.882812 476.058594 63.371094 476.058594 C 52.648438 476.058594 40.039062 462.503906 40.039062 450.835938 C 40.039062 443.269531 42.246094 438.226562 48.550781 432.867188 C 59.902344 423.09375 67.785156 423.722656 79.132812 434.757812 Z M 79.132812 434.757812 "/>
<path style=" stroke:none;fill-rule:nonzero;fill:rgb(0%,0%,0%);fill-opacity:1;" d="M 439.171875 186.640625 C 435.074219 193.578125 394.089844 289.417969 394.089844 292.570312 C 394.089844 294.148438 402.601562 299.507812 413.320312 304.238281 C 429.398438 311.488281 433.183594 312.117188 436.648438 308.648438 C 441.0625 303.921875 482.363281 207.449219 482.363281 201.773438 C 482.363281 198.621094 451.152344 182.855469 444.53125 182.855469 C 442.957031 182.855469 440.75 184.75 439.171875 186.640625 Z M 439.171875 186.640625 "/>
<path style=" stroke:none;fill-rule:nonzero;fill:rgb(0%,0%,0%);fill-opacity:1;" d="M 61.164062 216.589844 C 43.507812 259.152344 22.070312 312.117188 22.070312 314.640625 C 22.070312 316.214844 30.898438 321.261719 41.617188 325.675781 C 57.378906 332.609375 61.792969 333.558594 64.945312 330.402344 C 68.414062 326.621094 110.34375 227.308594 110.34375 222.582031 C 110.34375 219.429688 78.503906 204.925781 71.882812 204.925781 C 68.414062 204.925781 64.316406 209.65625 61.164062 216.589844 Z M 61.164062 216.589844 "/>
<path style=" stroke:none;fill-rule:nonzero;fill:rgb(0%,0%,0%);fill-opacity:1;" d="M 179.074219 323.785156 C 171.191406 332.925781 138.089844 415.210938 139.351562 423.09375 C 140.296875 430.660156 157.003906 441.0625 168.984375 441.378906 C 178.128906 441.378906 183.488281 434.128906 195.785156 404.175781 C 204.925781 382.109375 207.449219 378.324219 212.808594 379.585938 C 226.996094 382.738281 399.132812 457.144531 400.710938 460.925781 C 401.96875 463.132812 404.808594 469.125 407.015625 474.167969 C 413.949219 488.671875 427.507812 495.605469 447.054688 494.03125 C 487.410156 491.191406 501.597656 446.421875 470.699219 418.996094 C 459.664062 409.535156 458.089844 409.222656 438.855469 410.796875 C 416.15625 412.375 424.984375 415.84375 266.089844 348.058594 C 227.625 331.664062 193.261719 318.421875 190.109375 318.421875 C 186.640625 318.421875 181.597656 320.945312 179.074219 323.785156 Z M 461.558594 434.757812 C 470.382812 444.214844 469.125 459.980469 459.035156 468.808594 C 448 478.265625 438.226562 477.949219 427.507812 468.175781 C 417.734375 459.035156 417.101562 448.316406 425.929688 436.964844 C 434.128906 426.5625 453.042969 425.300781 461.558594 434.757812 Z M 461.558594 434.757812 "/>
<path style=" stroke:none;fill-rule:nonzero;fill:rgb(0%,0%,0%);fill-opacity:1;" d="M 215.328125 400.078125 C 213.753906 401.023438 209.023438 410.167969 204.925781 420.570312 C 197.988281 437.910156 197.988281 439.488281 203.035156 442.957031 C 210.601562 448.628906 301.082031 485.515625 307.074219 485.515625 C 312.433594 485.515625 329.144531 452.097656 326.9375 446.421875 C 325.988281 444.53125 313.0625 437.910156 297.617188 431.289062 C 282.167969 424.984375 258.207031 414.898438 244.019531 408.90625 C 229.832031 402.917969 217.222656 398.816406 215.328125 400.078125 Z M 215.328125 400.078125 "/>
</g>
</svg>
